<svg width="166" height="24" viewBox="0 0 166 24" fill="none" xmlns="http://www.w3.org/2000/svg">
<path d="M166 0.58342H163.542V23.4171H166V0.58342ZM156.401 15.9801C156.401 16.3663 156.439 16.7904 156.439 17.207C156.485 17.8732 156.371 18.5409 156.108 19.1547C155.845 19.7684 155.44 20.3105 154.926 20.7362C154.077 21.3908 153.024 21.7234 151.953 21.6752C151.477 21.7222 150.998 21.649 150.558 21.4625C150.118 21.2759 149.731 20.982 149.434 20.6074C149.197 20.2541 149.073 19.8366 149.079 19.4108C149.079 17.4342 151.348 16.9192 151.628 16.851C151.908 16.7829 152.339 16.692 152.694 16.6238C153.216 16.4951 153.7 16.4042 154.207 16.3057C154.918 16.177 155.66 16.1088 156.371 15.9801H156.401ZM149.714 12.875C149.685 12.4167 149.742 11.957 149.88 11.5194C150.493 9.67146 152.528 9.67146 153.012 9.67146C156.113 9.67146 156.302 11.9435 156.371 13.034V14.2988C155.614 14.3972 154.858 14.3972 154.048 14.4578C153.239 14.5184 152.399 14.6547 151.59 14.7835C150.263 14.9609 148.993 15.4374 147.876 16.177C147.364 16.5599 146.948 17.057 146.662 17.6289C146.376 18.2008 146.227 18.8317 146.227 19.4714C146.23 20.388 146.532 21.2786 147.086 22.0083C147.64 22.738 148.417 23.2671 149.298 23.5156C149.976 23.741 150.687 23.8511 151.401 23.8412C152.398 23.8406 153.382 23.6164 154.281 23.1853C155.181 22.7541 155.972 22.1269 156.597 21.3496C156.656 21.8194 156.836 22.2658 157.119 22.6446C157.258 22.8661 157.431 23.0631 157.634 23.2278C158.131 23.4946 158.689 23.6276 159.253 23.614C159.812 23.6167 160.368 23.5192 160.894 23.3262V21.1527C160.649 21.2297 160.394 21.273 160.138 21.2814C159.071 21.2814 159.041 20.4787 159.003 20.1227C158.965 19.7668 159.003 19.4411 159.003 19.1154V14.1397C159.092 13.0385 158.982 11.9302 158.678 10.8681C158.382 10.1562 157.92 9.52596 157.33 9.03038C156.74 8.5348 156.04 8.18843 155.289 8.02047C154.509 7.81099 153.706 7.70407 152.899 7.70239C149.215 7.70239 147.793 9.76991 147.308 11.224C147.153 11.7145 147.066 12.2243 147.051 12.7387L149.714 12.875ZM131.688 15.8513C131.688 13.4581 132.399 12.2616 133.201 11.4512C133.632 10.9942 134.155 10.6338 134.735 10.3936C135.315 10.1535 135.94 10.039 136.567 10.0577C137.385 10.0541 138.188 10.2718 138.893 10.6877C139.597 11.1036 140.176 11.7023 140.569 12.4206C141.082 13.4321 141.327 14.5587 141.28 15.6923C141.28 18.6686 140.084 20.312 139.01 20.9936C138.28 21.4611 137.426 21.6986 136.559 21.6752C135.699 21.7165 134.845 21.5056 134.102 21.0685C133.359 20.6313 132.759 19.9869 132.376 19.2139C131.856 18.1723 131.612 17.0146 131.665 15.8513H131.688ZM131.749 0.58342H129.169V23.4171H131.749V21.448C132.201 22.085 132.787 22.6149 133.466 23.0006C134.519 23.6263 135.729 23.9389 136.953 23.9018C137.99 23.9217 139.021 23.7257 139.979 23.3262C140.931 22.8975 141.756 22.2265 142.369 21.3799C143.513 19.7438 144.092 17.7787 144.018 15.7832C144.018 12.716 143.019 11.0347 142.142 9.99712C140.934 8.64511 139.241 7.82539 137.432 7.71619C135.623 7.60699 133.844 8.21714 132.482 9.41397C132.227 9.68905 131.99 9.97994 131.771 10.2849L131.749 0.58342ZM107.459 0.58342H105.001V23.4171H107.459V0.58342ZM100.546 11.3603H89.9554V13.9201H97.898C97.987 15.0741 97.7718 16.2313 97.274 17.2759C96.7762 18.3205 96.0132 19.216 95.0614 19.8728C93.5661 20.8659 91.8103 21.393 90.0159 21.3875C86.1052 21.3875 84.2973 19.4487 83.3593 18.1536C82.1524 16.3232 81.5346 14.1664 81.5892 11.9738C81.4921 9.49202 82.3198 7.06272 83.9115 5.15773C84.6786 4.28593 85.6315 3.59784 86.6999 3.14428C87.7683 2.69073 88.9248 2.48331 90.084 2.53735C90.9237 2.53735 93.957 2.6358 95.9313 4.90024C96.5883 5.63999 97.083 6.50944 97.3836 7.45246L100.553 6.64969C100.277 6.05749 99.9635 5.48331 99.6151 4.93053C98.3293 2.94386 96.4138 1.44752 94.1763 0.681874C92.8379 0.221416 91.4312 -0.00903609 90.0159 0.000271039C85.205 0.000271039 82.6785 2.16625 81.3548 3.62034C79.3031 6.03767 78.2007 9.12012 78.2534 12.2918C78.2534 18.7974 82.1036 21.804 84.3956 22.8946C86.0229 23.6484 87.7995 24.0239 89.5923 23.9927C92.3195 24.1015 94.9833 23.1519 97.0281 21.342C97.3562 20.9892 97.6572 20.612 97.9283 20.2136V23.4095H100.583L100.546 11.3603ZM64.7132 8.18708H62.1261V23.4171H64.7132V14.7532C64.6644 14.0391 64.7622 13.3226 65.0006 12.6478C65.2016 12.1244 65.511 11.6495 65.9083 11.2543C66.2813 10.8831 66.7257 10.5916 67.2147 10.3976C67.7036 10.2036 68.2268 10.1112 68.7525 10.1259C69.5636 10.0938 70.3623 10.3337 71.0218 10.8075C71.443 11.1564 71.7702 11.6053 71.9736 12.1132C72.1771 12.6212 72.2504 13.1721 72.1867 13.7156V23.4171H74.7359V14.3291C74.7359 12.6781 74.804 11.1937 73.8055 9.78506C73.3153 9.16836 72.7002 8.66259 72.0007 8.30105C71.3011 7.9395 70.5331 7.73039 69.747 7.68746C68.961 7.64453 68.1747 7.76877 67.4401 8.05199C66.7054 8.33521 66.039 8.771 65.4847 9.33066C65.1731 9.65281 64.9014 10.0113 64.6753 10.3985L64.7132 8.18708ZM49.4634 8.18708H47.1941L43.4497 19.5471L39.6675 8.22495H36.8612L42.1562 23.455H44.5163L48.2304 12.0949L51.8764 23.455H54.1457L59.7585 8.18708H57.0202L53.0489 19.5471L49.4634 8.18708ZM31.5358 15.9801V17.207C31.5819 17.8732 31.4686 18.5409 31.2055 19.1547C30.9424 19.7684 30.5371 20.3105 30.023 20.7362C29.1738 21.3908 28.1208 21.7234 27.0502 21.6752C26.5746 21.7222 26.0949 21.649 25.6549 21.4625C25.2149 21.2759 24.8285 20.982 24.5312 20.6074C24.3044 20.2507 24.191 19.8334 24.206 19.4108C24.206 17.4342 26.4753 16.9192 26.7627 16.851C27.0502 16.7829 27.4738 16.692 27.8293 16.6238C28.3437 16.4951 28.8278 16.4042 29.3422 16.3057C30.0532 16.177 30.8021 16.1088 31.5131 15.9801H31.5358ZM24.8489 12.875C24.8214 12.4173 24.8752 11.9583 25.0078 11.5194C25.6205 9.67146 27.6553 9.67146 28.1394 9.67146C31.2408 9.67146 31.4375 11.9435 31.498 13.034V14.2988C30.7416 14.3972 29.9851 14.3972 29.1682 14.4578C28.3512 14.5184 27.5192 14.6547 26.7098 14.7835C25.3827 14.962 24.1131 15.4383 22.9957 16.177C22.4838 16.5599 22.0682 17.057 21.782 17.6289C21.4957 18.2008 21.3466 18.8317 21.3466 19.4714C21.3502 20.388 21.6518 21.2786 22.2059 22.0083C22.7601 22.738 23.5365 23.2671 24.4178 23.5156C25.0958 23.7403 25.8065 23.8504 26.5207 23.8412C27.5266 23.8485 28.5212 23.6282 29.4303 23.1968C30.3393 22.7653 31.1392 22.1339 31.7703 21.3496C31.8287 21.8194 32.0086 22.2658 32.2923 22.6446C32.4305 22.8661 32.6043 23.0631 32.8067 23.2278C33.304 23.4939 33.8616 23.627 34.4254 23.614C34.9878 23.6163 35.546 23.5188 36.0745 23.3262V21.1527C35.8291 21.229 35.5748 21.2723 35.318 21.2814C34.2514 21.2814 34.2212 20.4787 34.1909 20.1227C34.1721 19.7872 34.1721 19.4509 34.1909 19.1154V14.1397C34.2777 13.039 34.1701 11.9315 33.8732 10.8681C33.5753 10.1564 33.1116 9.52646 32.5207 9.03104C31.9298 8.53562 31.2289 8.1891 30.4768 8.02047C29.6654 7.80234 28.8283 7.69534 27.9882 7.70239C24.3043 7.70239 22.8822 9.76991 22.3981 11.224C22.2426 11.7145 22.156 12.2243 22.1409 12.7387L24.8489 12.875ZM3.13165 3.26439H6.71716C8.08643 3.17071 9.46193 3.2908 10.7943 3.62034C11.4934 3.80028 12.151 4.11404 12.7308 4.54429C13.1496 4.85172 13.5282 5.21046 13.8579 5.61214C15.2498 7.33129 15.6355 9.88352 15.6355 11.9889C15.6355 15.4499 14.6976 17.4493 13.6688 18.6156C13.0111 19.3135 12.2136 19.8645 11.3285 20.2325C10.4434 20.6005 9.49064 20.7773 8.5326 20.7513H3.13165V3.26439ZM0 0.58342V23.4171H7.98041C9.25352 23.486 10.5296 23.3557 11.7626 23.0309C13.3998 22.5773 14.8794 21.6782 16.0371 20.4335C17.1948 19.1889 17.9854 17.6473 18.3209 15.9801C18.5929 14.6931 18.7223 13.38 18.7067 12.0646C18.7067 6.92233 16.8988 4.23378 15.1514 2.7494C13.4541 1.31728 11.2967 0.547982 9.07724 0.58342H0ZM118.284 16.2982C119.894 16.2982 121.467 15.8202 122.806 14.9248C124.144 14.0294 125.188 12.7567 125.804 11.2677C126.42 9.77866 126.581 8.14017 126.267 6.55943C125.953 4.97869 125.178 3.52669 124.039 2.38704C122.901 1.24739 121.451 0.471279 119.872 0.156851C118.293 -0.157578 116.656 0.00379815 115.169 0.620572C113.682 1.23735 112.411 2.28182 111.516 3.6219C110.622 4.96199 110.145 6.53751 110.145 8.14921C110.144 9.21963 110.354 10.2797 110.762 11.2689C111.171 12.258 111.77 13.1567 112.526 13.9136C113.282 14.6705 114.18 15.2707 115.168 15.6799C116.156 16.0891 117.215 16.2992 118.284 16.2982Z" fill="#F0F0F0"/>
</svg>
